<?xml version="1.0" encoding="UTF-8"?>
<svg width="256px" height="280px" viewBox="0 0 256 280" version="1.1" xmlns="http://www.w3.org/2000/svg" xmlns:xlink="http://www.w3.org/1999/xlink">
    <!-- Generator: Sketch 57.1 (83088) - https://sketch.com -->
    <title>Combined Shape</title>
    <desc>Created with Sketch.</desc>
    <g id="Page-1" stroke="none" stroke-width="1" fill="none" fill-rule="evenodd">
        <g id="Artboard" transform="translate(-12.000000, 0.000000)" fill="#FFFFFF">
            <path d="M117.147858,5.54178836 C129.836427,-1.84726279 149.719128,-1.84726279 162.407697,5.54178836 L162.407697,5.54178836 L244.94929,53.5977118 C257.624343,60.9799902 267.555556,78.2673899 267.555556,92.960833 L267.555556,92.960833 L267.555556,188.127884 C267.555556,202.831486 257.577035,220.064704 244.8344,227.362323 L244.8344,227.362323 L162.465142,274.534405 C156.105652,278.174749 147.941715,280 139.777778,280 C131.613841,280 123.449904,278.178135 117.090413,274.534405 L117.090413,274.534405 L34.7211556,227.362323 C21.9785206,220.064704 12,202.831486 12,188.127884 L12,188.127884 L12,92.960833 C12,78.2673899 21.9278339,60.9799902 34.6062658,53.5977118 L34.6062658,53.5977118 Z M140.333333,8.88888889 C133.805227,8.88888889 127.27712,10.3008173 122.424099,13.1280602 L122.424099,13.1280602 L39.9294976,61.1810303 C30.209947,66.8422878 22,81.144412 22,92.4127522 L22,92.4127522 L22,187.567249 C22,198.822046 30.2369645,213.053066 39.9869098,218.636447 L39.9869098,218.636447 L122.309274,265.802306 C132.079483,271.399231 148.587184,271.399231 158.357392,265.802306 L158.357392,265.802306 L240.679757,218.636447 C250.429702,213.053066 258.666667,198.822046 258.666667,187.567249 L258.666667,187.567249 L258.666667,92.4127522 C258.666667,81.144412 250.453342,66.8422878 240.733792,61.1810303 L240.733792,61.1810303 L158.242568,13.1280602 C153.389547,10.3008173 146.86144,8.88888889 140.333333,8.88888889 Z M139.799905,58.8888889 C161.519745,58.8888889 177.973041,76.571787 178.474294,100.194264 C182.873806,98.2857202 186.985437,97.3280522 190.83628,97.3280522 C213.897311,97.3280522 232,115.95843 232,139.740519 C232,163.526004 213.975208,182.156382 190.917564,182.156382 C187.230418,182.156382 183.561936,181.279976 179.223531,179.530152 L179.223531,179.530152 L178.653797,179.296962 L178.653797,179.80636 L178.648803,180.529947 C178.319587,204.348684 161.749577,222.222222 139.908284,222.222222 C119.347829,222.222222 102.53171,203.573165 102.197444,180.506681 L102.197444,180.506681 L102.192373,179.80636 L102.192373,179.296962 L101.626045,179.521015 C97.1324311,181.276925 93.5137845,182.156382 89.8202262,182.156382 C66.7625821,182.156382 48.6666667,163.526004 48.6666667,139.740519 C48.6666667,115.95843 66.7321005,97.3280522 89.7897446,97.3280522 C93.6439748,97.3280522 97.7556052,98.2857202 102.155118,100.19766 C102.680079,77.3189039 119.360293,58.8888889 139.799905,58.8888889 Z M139.840813,147.777778 C137.309181,150.717824 131.584898,157.138968 124.518134,163.61796 C119.94433,167.810759 116.080873,171.28186 111.601474,174.075026 L111.601474,174.075026 L110.888889,174.510425 L110.888889,180.278225 L110.892766,180.814957 C111.148295,198.49874 124.001041,213.333333 139.26157,213.333333 C155.898381,213.333333 168.414241,199.405891 168.662895,180.842171 L168.662895,180.842171 L168.666667,180.278225 L168.666667,174.510425 L167.978099,174.075026 C163.638148,171.28186 159.679202,167.810759 155.10216,163.61796 C148.035397,157.138968 142.375853,150.717824 139.840813,147.777778 Z M190.158657,106.666667 C173.508843,106.666667 148.514101,135.698502 145.641314,139.097962 L145.641314,139.097962 L145.561063,139.193073 L145.333333,139.442757 L145.561063,139.692441 L145.641314,139.787653 C148.514101,143.190387 173.508843,172.222222 190.158657,172.222222 C207.85018,172.222222 222,158.175808 222,139.442757 C222,120.713081 207.85018,106.666667 190.158657,106.666667 Z M89.4019709,106.666667 C71.7091402,106.666667 57.5555556,120.713081 57.5555556,139.442757 C57.5555556,158.175808 71.7091402,172.222222 89.4019709,172.222222 C106.059581,172.222222 131.061007,143.190387 133.934558,139.787653 L133.934558,139.787653 L134.014831,139.692441 L134.222222,139.442757 L134.014831,139.193073 L133.934558,139.097962 C131.061007,135.698502 106.059581,106.666667 89.4019709,106.666667 Z M139.26157,68.8888889 C124.001041,68.8888889 111.148295,83.5860412 110.892766,101.105985 L110.892766,101.105985 L110.888889,101.637744 L110.888889,105.73388 L111.601351,106.165245 C116.079221,108.932532 119.927464,112.371473 124.504505,116.525427 C131.571269,122.947763 137.278515,129.309415 139.810147,132.222222 C142.338372,129.309415 148.035397,122.947763 155.10216,116.525427 C159.675965,112.371473 163.637824,108.932532 167.978075,106.165245 L167.978075,106.165245 L168.666667,105.73388 L168.666667,101.637744 L168.662895,101.079023 C168.414241,82.6872945 155.898381,68.8888889 139.26157,68.8888889 Z" id="Combined-Shape"></path>
        </g>
    </g>
</svg>